# AST/ASF file generated using VICON BodyLanguage
# -----------------------------------------------
:version 1.10
:name VICON
:units
  mass 1.0
  length 0.45
  angle deg
:documentation
   .ast/.asf automatically generated from VICON data using
   VICON BodyBuilder and BodyLanguage model FoxedUp or BRILLIANT.MOD
:root
   order TX TY TZ RX RY RZ
   axis XYZ
   position 0 0 0  
   orientation 0 0 0 
:bonedata
  begin
     id 1 
     name lhipjoint
     direction 0.645422 -0.672597 0.361999 
     length 2.39934 
     axis 0 0 0  XYZ
  end
  begin
     id 2 
     name lfemur
     direction 0.34202 -0.939693 0  
     length 6.58112  
     axis 0 0 20  XYZ
    dof rx ry rz
    limits (-160.0 20.0)
           (-70.0 70.0)
           (-60.0 70.0)
  end
  begin
     id 3 
     name ltibia
     direction 0.34202 -0.939693 0   
     length 7.02673   
     axis 0 0 20   XYZ
    dof rx
    limits (-10.0 170.0)
  end
  begin
     id 4 
     name lfoot
     direction 0.0835106 -0.229444 0.969733   
     length 2.08772   
     axis -90 7.62852e-016 20   XYZ
    dof rx rz
    limits (-45.0 90.0)
           (-70.0 20.0)
  end
  begin
     id 5 
     name ltoes
     direction 1.5358e-011 -4.21925e-011 1   
     length 1.04844   
     axis -90 7.62852e-016 20   XYZ
    dof rx
    limits (-90.0 20.0)
  end
  begin
     id 6 
     name rhipjoint
     direction -0.644959 -0.672941 0.362185   
     length 2.39812  
     axis 0 0 0  XYZ 
  end
  begin
     id 7 
     name rfemur
     direction -0.34202 -0.939693 0   
     length 6.67015   
     axis 0 0 -20   XYZ
    dof rx ry rz
    limits (-160.0 20.0)
           (-70.0 70.0)
           (-70.0 60.0)
  end
  begin
     id 8 
     name rtibia
     direction -0.34202 -0.939693 0   
     length 7.35735   
     axis 0 0 -20   XYZ
    dof rx
    limits (-10.0 170.0)
 end
 begin
     id 9 
     name rfoot
     direction -0.0670769 -0.184292 0.98058   
     length 2.25469  
     axis -90 -7.62852e-016 -20   XYZ
    dof rx rz
    limits (-45.0 90.0)
           (-20.0 70.0)
  end
  begin
     id 10 
     name rtoes
     direction -1.53575e-011 -4.21908e-011 1   
     length 1.13399   
     axis -90 -7.62852e-016 -20   XYZ
    dof rx
    limits (-90.0 20.0)
  end
  begin
     id 11 
     name lowerback
     direction -0.0188328 0.993434 -0.112847   
     length 2.27656   
     axis 0 0 0   XYZ
    dof rx ry rz
    limits (-20.0 45.0)
           (-30.0 30.0)
           (-30.0 30.0)
  end
  begin
     id 12 
     name upperback
     direction 0.00983139 0.998968 -0.04435   
     length 2.28631   
     axis 0 0 0   XYZ
    dof rx ry rz
    limits (-20.0 45.0)
           (-30.0 30.0)
           (-30.0 30.0)
  end
  begin
     id 13 
     name thorax
     direction 0.0177718 0.999807 0.00833073   
     length 2.30999   
     axis 0 0 0   XYZ
    dof rx ry rz
    limits (-20.0 45.0)
           (-30.0 30.0)
           (-30.0 30.0)
  end
  begin
     id 14 
     name lowerneck
     direction -0.0835025 0.993181 0.0813558   
     length 1.39447   
     axis 0 0 0   XYZ
    dof rx ry rz
    limits (-20.0 45.0)
           (-30.0 30.0)
           (-30.0 30.0)
  end
  begin
     id 15 
     name upperneck
     direction 0.210059 0.976535 0.0474817   
     length 1.39882   
     axis 0 0 0   XYZ
    dof rx ry rz
    limits (-20.0 45.0)
           (-30.0 30.0)
           (-30.0 30.0)
  end
  begin
     id 16
     name head
     direction 0.0780891 0.996944 -0.00207154  
     length 1.41828  
     axis 0 0 0   XYZ
    dof rx ry rz
    limits (-20.0 45.0)
           (-30.0 30.0)
           (-30.0 30.0)
  end
  begin
     id 17 
     name lclavicle
     direction 0.982414 0.166355 -0.0847829  
     length 3.57922  
     axis 0 0 0   XYZ
    dof ry rz
    limits (-20.0 10.0)
           (0.0 20.0)
  end
  begin
     id 18 
     name lhumerus
     direction 1 -4.48975e-011 5.47647e-028   
     length 4.76405   
     axis -180 -30 -90   XYZ
    dof rx ry rz
    limits (-60.0 90.0)
           (-90.0 90.0)
           (-90.0 90.0)
  end
  begin
     id 19
     name lradius
     direction 1 -4.48949e-011 -8.32142e-027   
     length 3.13759   
     axis -180 -30 -90   XYZ
    dof rx
    limits (-10.0 170.0)
  end
  begin
     id 20
     name lwrist
     direction 1 -4.48978e-011 -1.32705e-026   
     length 1.56879   
     axis 9.60836e-015 90 90   XYZ
    dof ry
    limits (-180.0 0.0)
 end
  begin
     id 21 
     name lhand
     direction 1 -4.48975e-011 -2.65409e-026   
     length 0.732262   
     axis 1.69354e-014 90 90   XYZ
    dof rx rz
    limits (-90.0 90.0)
           (-45.0 45.0)
  end
  begin
     id 22 
     name lfingers
     direction 1 -4.48923e-011 -5.30819e-026   
     length 0.590368   
     axis 3.38708e-014 90 90   XYZ
    dof rx
    limits (0.0 90.0)
  end
  begin
     id 23
     name lthumb
     direction 0.707107 -6.34914e-011 0.707107   
     length 0.847654   
     axis -90 45 2.85299e-015   XYZ
    dof rx rz
    limits (-45.0 45.0)
           (-45.0 45.0)
  end
  begin
     id 24 
     name rclavicle
     direction -0.963658 0.245183 -0.106063   
     length 3.43472  
     axis 0 0 0   XYZ 
    dof ry rz
    limits (-10.0 20.0)
           (-20.0 0.0)
  end
  begin
     id 25 
     name rhumerus
     direction -1 -4.48963e-011 -1.64784e-027  
     length 5.10161   
     axis -180 30 90   XYZ
    dof rx ry rz
    limits (-90.0 60.0)
           (-90.0 90.0)
           (-90.0 90.0)
  end
  begin
     id 26 
     name rradius
     direction -1 -4.48969e-011 -2.87943e-027   
     length 3.23267   
     axis -180 30 90   XYZ
    dof rx
    limits (-10.0 170.0)
  end
  begin
     id 27 
     name rwrist
     direction -1 -4.48982e-011 -1.32705e-026   
     length 1.61633   
     axis 9.60836e-015 -90 -90   XYZ
    dof ry
    limits (-180.0 0.0)
  end
  begin
     id 28
     name rhand
     direction -1 -4.48963e-011 -2.65409e-026   
     length 0.702   
     axis 1.69354e-014 -90 -90   XYZ
    dof rx rz
    limits (-90.0 90.0)
           (-45.0 45.0)
  end
  begin
     id 29
     name rfingers
     direction -1 -4.48934e-011 -5.30819e-026   
     length 0.565971   
     axis 3.38708e-014 -90 -90   XYZ
    dof rx
    limits (0.0 90.0)
  end
  begin
     id 30
     name rthumb
     direction -0.707107 -6.34908e-011 0.707107   
     length 0.812624   
     axis -90 -45 -2.85299e-015   XYZ
    dof rx rz
    limits (-45.0 45.0)
           (-45.0 45.0)
  end
:hierarchy
  begin
    root lhipjoint rhipjoint lowerback
    lhipjoint lfemur
    lfemur ltibia
    ltibia lfoot
    lfoot ltoes
    rhipjoint rfemur
    rfemur rtibia
    rtibia rfoot
    rfoot rtoes
    lowerback upperback
    upperback thorax
    thorax lowerneck lclavicle rclavicle
    lowerneck upperneck
    upperneck head
    lclavicle lhumerus
    lhumerus lradius
    lradius lwrist
    lwrist lhand lthumb
    lhand lfingers
    rclavicle rhumerus
    rhumerus rradius
    rradius rwrist
    rwrist rhand rthumb
    rhand rfingers
  end

#!OML:ASF E:\basketball\basketball\Project 1\Capture day 1\Session 1\Subject.ASF
:FULLY-SPECIFIED
:DEGREES
48
root -14.3554 14.527 11.3541 213.321 70.0176 191.582
lowerback 20.0338 -0.401167 -4.18246
upperback 12.9886 0.169991 0.260007
thorax 2.93319 0.328724 2.63397
lowerneck -5.3441 -0.347958 -8.7327
upperneck -23.8859 4.7168 18.203
head -6.80738 2.61666 7.37715
rclavicle 8.74653e-015 -1.39149e-014
rhumerus -18.7922 -33.3843 -78.2238
rradius 93.3136
rwrist -41.9802
rhand -30.0772 38.4301
rfingers 7.12502
rthumb -3.39205 8.47731
lclavicle 8.74653e-015 -1.39149e-014
lhumerus -44.9304 4.09202 86.4803
lradius 26.1363
lwrist 5.86238
lhand -29.0883 19.9615
lfingers 7.12502
lthumb -2.43701 49.9273
rfemur -7.63434 -5.7645 29.5764
rtibia 68.5421
rfoot 0.0436561 2.20838
rtoes -40.0337
lfemur -53.6555 5.5835 -29.5044
ltibia 66.6387
lfoot -25.7522 -1.28581
ltoes -3.11977
49
root -13.9794 14.5007 11.2826 211.198 70.4818 189.601
lowerback 20.0484 -0.450946 -5.48345
upperback 13.1413 -0.0589432 -0.0669708
thorax 3.15582 0.150284 3.0588
lowerneck -5.01081 -0.322771 -9.06984
upperneck -24.4181 4.92387 18.5993
head -7.08188 2.7112 7.59803
rclavicle 1.90833e-014 -2.98177e-014
rhumerus -19.4512 -33.3223 -77.5301
rradius 94.5963
rwrist -44.044
rhand -32.2603 38.2902
rfingers 7.12502
rthumb -5.50006 8.38157
lclavicle 1.90833e-014 -2.98177e-014
lhumerus -42.7179 4.9922 86.5139
lradius 26.391
lwrist 5.67909
lhand -29.0126 20.0385
lfingers 7.12502
lthumb -2.36384 50.0051
rfemur -10.827 -6.18781 28.4109
rtibia 74.3139
rfoot -0.664249 1.54138
rtoes -39.3248
lfemur -51.6993 5.7917 -29.9504
ltibia 66.7943
lfoot -26.6863 -1.10522
ltoes -4.88887
50
root -13.6017 14.4854 11.2112 209.017 70.9912 187.565
lowerback 20.7223 -0.500643 -6.67501
upperback 12.837 -0.385281 -0.505386
thorax 2.55318 -0.047678 3.31779
lowerneck -5.10849 -0.198681 -9.0341
upperneck -24.4083 5.11869 18.6145
head -7.09309 2.81045 7.58884
rclavicle 1.90833e-014 -4.6118e-014
rhumerus -20.6649 -33.4155 -76.663
rradius 95.3224
rwrist -46.2775
rhand -31.6018 37.9665
rfingers 7.12502
rthumb -4.86425 8.04233
lclavicle 1.90833e-014 -4.6118e-014
lhumerus -41.0121 5.88626 86.2242
lradius 26.6976
lwrist 5.07492
lhand -29.0424 20.2068
lfingers 7.12502
lthumb -2.39261 50.1732
rfemur -14.1562 -6.40332 27.2593
rtibia 79.7759
rfoot -1.60297 0.4359
rtoes -39.7508
lfemur -49.5994 6.20205 -30.4379
ltibia 66.7714
lfoot -27.5253 -0.821485
ltoes -7.76223
51
root -13.2249 14.4814 11.1346 206.78 71.5165 185.414
lowerback 20.7667 -0.446274 -8.01001
upperback 12.8461 -0.52241 -0.70923
thorax 2.62026 -0.18442 3.87488
lowerneck -5.06251 -0.0347015 -9.21915
upperneck -24.8084 5.31382 18.1158
head -7.26521 2.94992 7.44824
rclavicle -2.06736e-014 -8.74653e-015
rhumerus -21.2097 -33.8141 -75.7856
rradius 96.3216
rwrist -49.2897
rhand -31.2092 37.1711
rfingers 7.12502
rthumb -4.48516 7.23861
lclavicle -2.06736e-014 -8.74653e-015
lhumerus -38.5299 6.77752 86.383
lradius 26.8219
lwrist 4.40014
lhand -28.9899 20.2959
lfingers 7.12502
lthumb -2.34195 50.2628
rfemur -17.6927 -6.3769 26.0882
rtibia 84.7772
rfoot -2.42792 -0.393492
rtoes -38.8198
lfemur -47.4048 6.63338 -30.8719
ltibia 66.4749
lfoot -28.1176 -0.943175
ltoes -9.78257
52
root -12.8476 14.4876 11.0487 204.684 72.0387 183.525
lowerback 20.9741 -0.495189 -8.89413
upperback 12.7976 -0.742444 -1.13041
thorax 2.53272 -0.31751 3.95838
lowerneck -5.10118 -0.0362583 -9.45789
upperneck -24.7306 5.36133 18.4393
head -7.24697 2.97614 7.60819
rclavicle 1.27222e-014 -3.73715e-014
rhumerus -21.6464 -34.3245 -75.3535
rradius 96.9572
rwrist -51.3493
rhand -30.2453 35.9272
rfingers 7.12502
rthumb -3.55432 5.97705
lclavicle 1.27222e-014 -3.73715e-014
lhumerus -36.1299 7.48778 86.1963
lradius 27.1765
lwrist 3.70304
lhand -28.904 20.3928
lfingers 7.12502
lthumb -2.25904 50.3606
rfemur -21.2102 -6.15745 24.9738
rtibia 89.2041
rfoot -3.14798 -0.922417
rtoes -38.056
lfemur -44.9457 7.10698 -31.1064
ltibia 65.9168
lfoot -28.5212 -1.67385
ltoes -9.99723
53
root -12.4675 14.5022 10.9558 203.52 72.3887 182.727
lowerback 21.2073 -0.50353 -9.62076
upperback 12.7291 -0.902938 -1.18396
thorax 2.40621 -0.429729 4.33957
lowerneck -4.91863 0.200419 -9.95256
upperneck -24.7439 5.60666 18.1967
head -7.33215 3.13409 7.60026
rclavicle -4.77083e-015 -3.26007e-014
rhumerus -21.7628 -34.5155 -74.6645
rradius 97.307
rwrist -53.1701
rhand -30.0204 34.8092
rfingers 7.12502
rthumb -3.33712 4.85559
lclavicle -4.77083e-015 -3.26007e-014
lhumerus -33.7707 8.62579 86.3409
lradius 27.695
lwrist 2.89662
lhand -28.7761 20.3612
lfingers 7.12502
lthumb -2.1355 50.3303
rfemur -24.5631 -5.73113 24.2728
rtibia 92.9549
rfoot -3.99912 -1.20238
rtoes -37.1738
lfemur -42.288 7.58914 -30.8647
ltibia 65.1987
lfoot -28.8478 -2.27219
ltoes -11.7183
54
root -12.0847 14.5193 10.8605 203.469 72.5371 182.958
lowerback 21.4649 -0.631223 -9.61186
upperback 12.5197 -1.13216 -1.40768
thorax 2.06592 -0.51907 4.13971
lowerneck -5.04157 0.380911 -10.0341
upperneck -24.2574 5.76829 18.1894
head -7.17745 3.21824 7.58603
rclavicle -1.59028e-015 -5.1684e-014
rhumerus -21.9334 -34.7802 -74.2854
rradius 97.29
rwrist -54.2948
rhand -29.272 33.4734
rfingers 7.12502
rthumb -2.61439 3.50969
lclavicle -1.59028e-015 -5.1684e-014
lhumerus -31.562 9.19075 86.3061
lradius 28.4535
lwrist 3.01175
lhand -28.5962 20.3325
lfingers 7.12502
lthumb -1.96173 50.3032
rfemur -28.0336 -5.10955 24.0129
rtibia 96.0496
rfoot -4.24945 -1.6522
rtoes -34.3892
lfemur -39.7586 8.10383 -30.2431
ltibia 64.3725
lfoot -29.081 -2.75394
ltoes -14.5732
55
root -11.6951 14.5362 10.7608 203.626 72.6237 183.376
lowerback 21.4635 -0.751465 -9.56021
upperback 12.3831 -1.30971 -1.52198
thorax 1.92868 -0.597013 4.02127
lowerneck -4.96687 0.322221 -10.2014
upperneck -23.5367 5.61176 18.7249
head -6.93609 3.10217 7.79291
rclavicle 2.8625e-014 -1.59028e-015
rhumerus -21.7906 -34.9351 -73.9393
rradius 97.1043
rwrist -55.3112
rhand -28.523 32.3098
rfingers 7.12502
rthumb -1.89107 2.33842
lclavicle 2.8625e-014 -1.59028e-015
lhumerus -29.3475 9.73927 86.5408
lradius 29.5485
lwrist 3.54542
lhand -28.3748 20.2834
lfingers 7.12502
lthumb -1.74788 50.256
rfemur -31.5636 -4.40481 23.78
rtibia 98.573
rfoot -4.70022 -2.06921
rtoes -31.133
lfemur -37.1907 8.77303 -29.5814
ltibia 63.3962
lfoot -29.2579 -3.525
ltoes -15.8485
56
root -11.3047 14.5531 10.6582 203.22 72.6415 183.244
lowerback 21.3915 -0.912092 -9.563
upperback 12.2757 -1.53353 -1.66628
thorax 1.86799 -0.701795 3.90789
lowerneck -4.8628 0.441052 -10.0681
upperneck -23.221 5.60391 18.3596
head -6.8447 3.08638 7.62035
rclavicle -3.65764e-014 3.65764e-014
rhumerus -21.3474 -35.0459 -73.8028
rradius 96.7696
rwrist -56.2449
rhand -28.0822 31.3336
rfingers 7.12502
rthumb -1.46532 1.35893
lclavicle -3.65764e-014 3.65764e-014
lhumerus -27.2673 10.1941 86.8359
lradius 31.0521
lwrist 4.24053
lhand -28.2228 20.3483
lfingers 7.12502
lthumb -1.60105 50.3221
rfemur -35.1067 -3.83751 23.3057
rtibia 100.576
rfoot -5.50536 -2.59596
rtoes -28.3363
lfemur -34.4482 9.37437 -29.0851
ltibia 62.2284
lfoot -29.2544 -4.24264
ltoes -16.9953
57
root -10.9214 14.5643 10.5579 202.819 72.5246 182.899
lowerback 21.242 -1.1205 -9.56916
upperback 12.0411 -1.84088 -1.73302
thorax 1.7155 -0.852122 3.89534
lowerneck -4.74179 0.528782 -10.2361
upperneck -22.8436 5.64026 18.4546
head -6.75437 3.09327 7.66949
rclavicle -7.95139e-015 1.11319e-014
rhumerus -20.7031 -35.0795 -73.662
rradius 96.1788
rwrist -56.9758
rhand -27.6059 30.7771
rfingers 7.12502
rthumb -1.00529 0.799732
lclavicle -7.95139e-015 1.11319e-014
lhumerus -25.5452 9.84578 87.4511
lradius 33.1031
lwrist 5.5187
lhand -27.969 19.9369
lfingers 7.12502
lthumb -1.35596 49.9124
rfemur -38.9097 -3.40665 22.8158
rtibia 102.023
rfoot -6.15038 -3.33465
rtoes -26.6807
lfemur -31.9081 9.85555 -28.6551
ltibia 60.9046
lfoot -28.9919 -4.89582
ltoes -18.3856
58
root -10.5295 14.5806 10.4522 202.867 72.3643 182.872
lowerback 21.0622 -1.3795 -9.46644
upperback 11.6498 -2.22867 -1.7278
thorax 1.4071 -1.03861 3.91613
lowerneck -4.92867 0.63099 -10.4851
upperneck -21.7689 5.60168 18.6835
head -6.37664 3.07278 7.76284
rclavicle -4.77083e-014 -1.66979e-014
rhumerus -20.0403 -34.9987 -73.4568
rradius 95.4447
rwrist -57.4179
rhand -26.7792 30.114
rfingers 7.12502
rthumb -0.206834 0.134352
lclavicle -4.77083e-014 -1.66979e-014
lhumerus -24.2817 9.04848 88.0845
lradius 35.6769
lwrist 7.20846
lhand -27.9362 20.2754
lfingers 7.12502
lthumb -1.32427 50.251
rfemur -42.7344 -2.97231 22.3748
rtibia 102.777
rfoot -6.63166 -4.09765
rtoes -25.213
lfemur -29.4853 10.3805 -28.1336
ltibia 59.3563
lfoot -28.5317 -5.61047
ltoes -19.1074
59
root -10.1247 14.6116 10.3398 203.07 72.2859 183.064
lowerback 21.0099 -1.66021 -9.30153
upperback 11.1945 -2.65711 -1.77468
thorax 0.962255 -1.23424 3.86009
lowerneck -4.84061 0.706177 -10.5616
upperneck -21.2015 5.58185 18.7973
head -6.21175 3.04257 7.79803
rclavicle 2.8625e-014 -1.59028e-014
rhumerus -19.396 -34.8194 -73.4013
rradius 94.7867
rwrist -57.4784
rhand -25.7605 28.7064
rfingers 7.12502
rthumb 0.777073 -1.27197
lclavicle 2.8625e-014 -1.59028e-014
lhumerus -23.3675 7.74874 88.641
lradius 38.5463
lwrist 9.40086
lhand -27.7324 20.0725
lfingers 7.12502
lthumb -1.12747 50.0493
rfemur -46.2523 -2.45257 21.8841
rtibia 102.807
rfoot -6.98191 -4.89806
rtoes -23.3455
lfemur -26.8562 10.9155 -27.5144
ltibia 57.5609
lfoot -27.8363 -6.46359
ltoes -19.1322
60
root -9.70521 14.6546 10.2236 202.732 71.8728 182.955
lowerback 20.6997 -1.96252 -9.49519
upperback 11.2297 -3.04926 -1.38762
thorax 1.25212 -1.47234 4.43922
lowerneck -5.32529 0.88705 -11.0851
upperneck -20.6265 5.68653 18.4814
head -5.97103 3.16346 7.764
rclavicle -4.29375e-014 3.81667e-014
rhumerus -17.6561 -34.6319 -73.4117
rradius 94.0431
rwrist -57.2224
rhand -24.6077 27.0224
rfingers 7.12502
rthumb 1.89043 -2.94893
lclavicle -4.29375e-014 3.81667e-014
lhumerus -21.8864 6.52967 89.718
lradius 41.409
lwrist 10.9909
lhand -27.6496 20.1581
lfingers 7.12502
lthumb -1.04745 50.1352
rfemur -49.0022 -2.23783 21.3729
rtibia 102.072
rfoot -7.49617 -5.958
rtoes -24.3648
lfemur -23.7101 11.0669 -26.7118
ltibia 55.4706
lfoot -26.7866 -7.52301
ltoes -18.7086
61
root -9.28089 14.699 10.1024 203.001 71.7632 183.29
lowerback 20.4813 -2.2923 -9.21812
upperback 10.9627 -3.47037 -1.40675
thorax 1.09407 -1.67084 4.33497
lowerneck -5.8904 1.13265 -11.3079
upperneck -19.6241 5.91501 18.5805
head -5.60433 3.31183 7.80772
rclavicle 1.74931e-014 -1.74931e-014
rhumerus -16.3071 -34.8096 -73.8034
rradius 93.0793
rwrist -55.2256
rhand -21.3857 23.6167
rfingers 7.12502
rthumb 5.00192 -6.30422
lclavicle 1.74931e-014 -1.74931e-014
lhumerus -21.1415 4.55282 89.952
lradius 44.5677
lwrist 12.5715
lhand -27.5128 20.4167
lfingers 7.12502
lthumb -0.91541 50.3945
rfemur -51.8625 -1.7226 20.8025
rtibia 100.805
rfoot -8.02243 -7.05871
rtoes -26.8814
lfemur -20.7295 11.3885 -25.9466
ltibia 53.1058
lfoot -25.3659 -8.136
ltoes -19.4816
62
root -8.84104 14.7457 9.98855 203.105 71.7747 183.418
lowerback 20.148 -2.48474 -9.36989
upperback 10.6641 -3.7815 -1.28507
thorax 0.997044 -1.84398 4.59531
lowerneck -6.52608 1.21922 -11.395
upperneck -18.0643 5.82326 18.8394
head -5.00429 3.28369 7.88462
rclavicle 3.18055e-015 3.18055e-015
rhumerus -14.9877 -34.5171 -74.2485
rradius 92.4686
rwrist -54.2083
rhand -19.6343 22.112
rfingers 7.12502
rthumb 6.69282 -7.76226
lclavicle 3.18055e-015 3.18055e-015
lhumerus -20.4993 2.64834 90.2004
lradius 47.6115
lwrist 13.4698
lhand -27.3665 20.7688
lfingers 7.12502
lthumb -0.774104 50.7471
rfemur -54.4504 -1.23158 20.1316
rtibia 98.9928
rfoot -8.65819 -7.96147
rtoes -28.0609
lfemur -17.6568 11.7569 -25.2276
ltibia 50.4673
lfoot -23.5924 -8.61384
ltoes -19.8637
